# xmcd
#
# Track frame offsets:
#	150
#	6940
#	26492
#	44497
#	57817
#	66895
#	82320
#	97022
#	120612
#	139130
#	146992
#
# Disc length: 2027 seconds
#
# Revision: 1
# Processed by: cddbd v1.5.1PL0 Copyright (c) Steve Scherf et al.
# Submitted via: CDex 1.50Beta5
#
DISCID=a307e90b
DTITLE=ビデオ・サントラ - merry fish/music&photo book
DYEAR=1994
DGENRE=Pop
TTITLE0=ビデオ・サントラ/opening
TTITLE1=井上喜久子/陽気なおさかな
TTITLE2=ビデオ・サントラ/blue A type
TTITLE3=ビデオ・サントラ/blue B type
TTITLE4=ビデオ・サントラ/scenes of landscape
TTITLE5=ビデオ・サントラ/from manbou island
TTITLE6=ビデオ・サントラ/scenes of sea
TTITLE7=ビデオ・サントラ/yellow
TTITLE8=井上喜久子/おかえりなさい
TTITLE9=ビデオ・サントラ/自転車とわたし
TTITLE10=ビデオ・サントラ/end theme
EXTD=
EXTT0=
EXTT1=
EXTT2=
EXTT3=
EXTT4=
EXTT5=
EXTT6=
EXTT7=
EXTT8=
EXTT9=
EXTT10=
PLAYORDER=
